<svg xmlns="http://www.w3.org/2000/svg" xmlns:xlink="http://www.w3.org/1999/xlink" width="360" zoomAndPan="magnify" viewBox="0 0 270 67.499998" height="90" preserveAspectRatio="xMidYMid meet" version="1.2"><defs><clipPath id="4141b97f30"><rect x="0" width="71" y="0" height="31"/></clipPath></defs><g id="b26fc6e9fd"><g style="fill:#000000;fill-opacity:0.4;"><g transform="translate(14.553997, 60.068409)"><path style="stroke:none" d="M 21.484375 -44.125 C 26.085938 -44.125 29.6875 -43.128906 32.28125 -41.140625 C 34.882812 -39.148438 36.1875 -36.164062 36.1875 -32.1875 C 36.1875 -30.226562 35.5625 -28.472656 34.3125 -26.921875 C 33.070312 -25.378906 31.429688 -24.234375 29.390625 -23.484375 C 32.035156 -22.921875 34.125 -21.617188 35.65625 -19.578125 C 37.195312 -17.535156 37.96875 -15.160156 37.96875 -12.453125 C 37.96875 -8.410156 36.65625 -5.320312 34.03125 -3.1875 C 31.40625 -1.0625 27.847656 0 23.359375 0 L 2.15625 0 L 2.15625 -3.8125 L 7.09375 -4.671875 L 7.09375 -39.421875 L 2.15625 -40.28125 L 2.15625 -44.125 Z M 13.0625 -20.703125 L 13.0625 -4.671875 L 23.359375 -4.671875 C 26.085938 -4.671875 28.203125 -5.34375 29.703125 -6.6875 C 31.210938 -8.03125 31.96875 -9.929688 31.96875 -12.390625 C 31.96875 -14.972656 31.335938 -17.003906 30.078125 -18.484375 C 28.816406 -19.960938 26.882812 -20.703125 24.28125 -20.703125 Z M 13.0625 -25.359375 L 23.03125 -25.359375 C 25.175781 -25.421875 26.910156 -26.054688 28.234375 -27.265625 C 29.554688 -28.484375 30.21875 -30.160156 30.21875 -32.296875 C 30.21875 -34.679688 29.46875 -36.460938 27.96875 -37.640625 C 26.476562 -38.828125 24.316406 -39.421875 21.484375 -39.421875 L 13.0625 -39.421875 Z M 13.0625 -25.359375 "/></g></g><g style="fill:#000000;fill-opacity:0.4;"><g transform="translate(55.311065, 60.068409)"><path style="stroke:none" d="M 2.125 -40.28125 L 2.125 -44.125 L 17.96875 -44.125 L 17.96875 -40.28125 L 13.03125 -39.421875 L 13.03125 -4.671875 L 17.96875 -3.8125 L 17.96875 0 L 2.125 0 L 2.125 -3.8125 L 7.0625 -4.671875 L 7.0625 -39.421875 Z M 2.125 -40.28125 "/></g></g><g style="fill:#000000;fill-opacity:0.4;"><g transform="translate(75.371419, 60.068409)"><path style="stroke:none" d="M 36.359375 -30.578125 L 32.15625 -30.578125 L 31.03125 -36.8125 C 30.0625 -37.769531 28.867188 -38.550781 27.453125 -39.15625 C 26.035156 -39.757812 24.347656 -40.0625 22.390625 -40.0625 C 17.804688 -40.0625 14.28125 -38.398438 11.8125 -35.078125 C 9.351562 -31.753906 8.125 -27.535156 8.125 -22.421875 L 8.125 -21.734375 C 8.125 -16.617188 9.328125 -12.390625 11.734375 -9.046875 C 14.148438 -5.703125 17.5 -4.03125 21.78125 -4.03125 C 23.78125 -4.03125 25.597656 -4.34375 27.234375 -4.96875 C 28.878906 -5.59375 30.144531 -6.359375 31.03125 -7.265625 L 32.15625 -13.515625 L 36.359375 -13.515625 L 36.359375 -5.671875 C 35.085938 -4.035156 33.175781 -2.570312 30.625 -1.28125 C 28.082031 0 25.132812 0.640625 21.78125 0.640625 C 16.050781 0.640625 11.347656 -1.476562 7.671875 -5.71875 C 3.992188 -9.96875 2.15625 -15.304688 2.15625 -21.734375 L 2.15625 -22.359375 C 2.15625 -28.828125 3.960938 -34.175781 7.578125 -38.40625 C 11.191406 -42.644531 15.925781 -44.765625 21.78125 -44.765625 C 25.132812 -44.765625 28.082031 -44.109375 30.625 -42.796875 C 33.175781 -41.492188 35.085938 -40.035156 36.359375 -38.421875 Z M 36.359375 -30.578125 "/></g></g><g style="fill:#000000;fill-opacity:0.4;"><g transform="translate(114.522339, 60.068409)"><path style="stroke:none" d="M 37.78125 -44.125 L 37.78125 -34.359375 L 32.703125 -34.359375 L 32.25 -39.421875 L 22.453125 -39.421875 L 22.453125 -4.671875 L 27.390625 -3.8125 L 27.390625 0 L 11.546875 0 L 11.546875 -3.8125 L 16.484375 -4.671875 L 16.484375 -39.421875 L 6.671875 -39.421875 L 6.25 -34.359375 L 1.125 -34.359375 L 1.125 -44.125 Z M 37.78125 -44.125 "/></g></g><g style="fill:#000000;fill-opacity:0.4;"><g transform="translate(153.43094, 60.068409)"><path style="stroke:none" d="M 2.15625 0 L 2.15625 -3.8125 L 7.09375 -4.671875 L 7.09375 -39.421875 L 2.15625 -40.28125 L 2.15625 -44.125 L 36.03125 -44.125 L 36.03125 -33.515625 L 30.90625 -33.515625 L 30.421875 -39.421875 L 13.0625 -39.421875 L 13.0625 -25.15625 L 29.9375 -25.15625 L 29.9375 -20.453125 L 13.0625 -20.453125 L 13.0625 -4.671875 L 30.78125 -4.671875 L 31.28125 -10.578125 L 36.359375 -10.578125 L 36.359375 0 Z M 2.15625 0 "/></g></g><g style="fill:#000000;fill-opacity:1;"><g transform="translate(11.810952, 57.325364)"><path style="stroke:none" d="M 21.484375 -44.125 C 26.085938 -44.125 29.6875 -43.128906 32.28125 -41.140625 C 34.882812 -39.148438 36.1875 -36.164062 36.1875 -32.1875 C 36.1875 -30.226562 35.5625 -28.472656 34.3125 -26.921875 C 33.070312 -25.378906 31.429688 -24.234375 29.390625 -23.484375 C 32.035156 -22.921875 34.125 -21.617188 35.65625 -19.578125 C 37.195312 -17.535156 37.96875 -15.160156 37.96875 -12.453125 C 37.96875 -8.410156 36.65625 -5.320312 34.03125 -3.1875 C 31.40625 -1.0625 27.847656 0 23.359375 0 L 2.15625 0 L 2.15625 -3.8125 L 7.09375 -4.671875 L 7.09375 -39.421875 L 2.15625 -40.28125 L 2.15625 -44.125 Z M 13.0625 -20.703125 L 13.0625 -4.671875 L 23.359375 -4.671875 C 26.085938 -4.671875 28.203125 -5.34375 29.703125 -6.6875 C 31.210938 -8.03125 31.96875 -9.929688 31.96875 -12.390625 C 31.96875 -14.972656 31.335938 -17.003906 30.078125 -18.484375 C 28.816406 -19.960938 26.882812 -20.703125 24.28125 -20.703125 Z M 13.0625 -25.359375 L 23.03125 -25.359375 C 25.175781 -25.421875 26.910156 -26.054688 28.234375 -27.265625 C 29.554688 -28.484375 30.21875 -30.160156 30.21875 -32.296875 C 30.21875 -34.679688 29.46875 -36.460938 27.96875 -37.640625 C 26.476562 -38.828125 24.316406 -39.421875 21.484375 -39.421875 L 13.0625 -39.421875 Z M 13.0625 -25.359375 "/></g></g><g style="fill:#000000;fill-opacity:1;"><g transform="translate(52.56802, 57.325364)"><path style="stroke:none" d="M 2.125 -40.28125 L 2.125 -44.125 L 17.96875 -44.125 L 17.96875 -40.28125 L 13.03125 -39.421875 L 13.03125 -4.671875 L 17.96875 -3.8125 L 17.96875 0 L 2.125 0 L 2.125 -3.8125 L 7.0625 -4.671875 L 7.0625 -39.421875 Z M 2.125 -40.28125 "/></g></g><g style="fill:#000000;fill-opacity:1;"><g transform="translate(72.628374, 57.325364)"><path style="stroke:none" d="M 36.359375 -30.578125 L 32.15625 -30.578125 L 31.03125 -36.8125 C 30.0625 -37.769531 28.867188 -38.550781 27.453125 -39.15625 C 26.035156 -39.757812 24.347656 -40.0625 22.390625 -40.0625 C 17.804688 -40.0625 14.28125 -38.398438 11.8125 -35.078125 C 9.351562 -31.753906 8.125 -27.535156 8.125 -22.421875 L 8.125 -21.734375 C 8.125 -16.617188 9.328125 -12.390625 11.734375 -9.046875 C 14.148438 -5.703125 17.5 -4.03125 21.78125 -4.03125 C 23.78125 -4.03125 25.597656 -4.34375 27.234375 -4.96875 C 28.878906 -5.59375 30.144531 -6.359375 31.03125 -7.265625 L 32.15625 -13.515625 L 36.359375 -13.515625 L 36.359375 -5.671875 C 35.085938 -4.035156 33.175781 -2.570312 30.625 -1.28125 C 28.082031 0 25.132812 0.640625 21.78125 0.640625 C 16.050781 0.640625 11.347656 -1.476562 7.671875 -5.71875 C 3.992188 -9.96875 2.15625 -15.304688 2.15625 -21.734375 L 2.15625 -22.359375 C 2.15625 -28.828125 3.960938 -34.175781 7.578125 -38.40625 C 11.191406 -42.644531 15.925781 -44.765625 21.78125 -44.765625 C 25.132812 -44.765625 28.082031 -44.109375 30.625 -42.796875 C 33.175781 -41.492188 35.085938 -40.035156 36.359375 -38.421875 Z M 36.359375 -30.578125 "/></g></g><g style="fill:#000000;fill-opacity:1;"><g transform="translate(111.779294, 57.325364)"><path style="stroke:none" d="M 37.78125 -44.125 L 37.78125 -34.359375 L 32.703125 -34.359375 L 32.25 -39.421875 L 22.453125 -39.421875 L 22.453125 -4.671875 L 27.390625 -3.8125 L 27.390625 0 L 11.546875 0 L 11.546875 -3.8125 L 16.484375 -4.671875 L 16.484375 -39.421875 L 6.671875 -39.421875 L 6.25 -34.359375 L 1.125 -34.359375 L 1.125 -44.125 Z M 37.78125 -44.125 "/></g></g><g style="fill:#000000;fill-opacity:1;"><g transform="translate(150.687895, 57.325364)"><path style="stroke:none" d="M 2.15625 0 L 2.15625 -3.8125 L 7.09375 -4.671875 L 7.09375 -39.421875 L 2.15625 -40.28125 L 2.15625 -44.125 L 36.03125 -44.125 L 36.03125 -33.515625 L 30.90625 -33.515625 L 30.421875 -39.421875 L 13.0625 -39.421875 L 13.0625 -25.15625 L 29.9375 -25.15625 L 29.9375 -20.453125 L 13.0625 -20.453125 L 13.0625 -4.671875 L 30.78125 -4.671875 L 31.28125 -10.578125 L 36.359375 -10.578125 L 36.359375 0 Z M 2.15625 0 "/></g></g><g transform="matrix(1,0,0,1,183,18)"><g clip-path="url(#4141b97f30)"><g style="fill:#ff00ff;fill-opacity:1;"><g transform="translate(1.846409, 23.881886)"><path style="stroke:none" d="M 13.609375 -1.75 C 13.097656 -1.238281 12.351562 -0.78125 11.375 -0.375 C 10.394531 0.0195312 9.160156 0.21875 7.671875 0.21875 C 5.554688 0.21875 3.832031 -0.488281 2.5 -1.90625 C 1.164062 -3.320312 0.5 -5.164062 0.5 -7.4375 L 0.5 -7.96875 C 0.5 -10.320312 1.15625 -12.234375 2.46875 -13.703125 C 3.78125 -15.171875 5.492188 -15.90625 7.609375 -15.90625 C 8.835938 -15.90625 9.957031 -15.707031 10.96875 -15.3125 C 11.988281 -14.925781 12.835938 -14.398438 13.515625 -13.734375 L 13.515625 -10.578125 L 11.1875 -10.578125 L 10.734375 -12.671875 C 10.453125 -12.921875 10.070312 -13.117188 9.59375 -13.265625 C 9.125 -13.410156 8.585938 -13.484375 7.984375 -13.484375 C 6.609375 -13.484375 5.539062 -12.976562 4.78125 -11.96875 C 4.019531 -10.957031 3.640625 -9.632812 3.640625 -8 L 3.640625 -7.4375 C 3.640625 -5.84375 4.007812 -4.566406 4.75 -3.609375 C 5.5 -2.660156 6.582031 -2.1875 8 -2.1875 C 8.625 -2.1875 9.128906 -2.238281 9.515625 -2.34375 C 9.910156 -2.457031 10.222656 -2.582031 10.453125 -2.71875 L 10.453125 -5.390625 L 8.203125 -5.5625 L 8.203125 -7.765625 L 13.609375 -7.765625 Z M 13.609375 -1.75 "/></g></g><g style="fill:#ff00ff;fill-opacity:1;"><g transform="translate(16.417471, 23.881886)"><path style="stroke:none" d="M 6.921875 -15.6875 L 6.921875 -13.796875 L 5.234375 -13.46875 L 5.234375 -5.28125 C 5.234375 -4.25 5.507812 -3.472656 6.0625 -2.953125 C 6.625 -2.441406 7.390625 -2.1875 8.359375 -2.1875 C 9.335938 -2.1875 10.109375 -2.441406 10.671875 -2.953125 C 11.234375 -3.460938 11.515625 -4.238281 11.515625 -5.28125 L 11.515625 -13.46875 L 9.84375 -13.796875 L 9.84375 -15.6875 L 16.34375 -15.6875 L 16.34375 -13.796875 L 14.65625 -13.46875 L 14.65625 -5.28125 C 14.65625 -3.519531 14.078125 -2.160156 12.921875 -1.203125 C 11.765625 -0.253906 10.242188 0.21875 8.359375 0.21875 C 6.484375 0.21875 4.96875 -0.253906 3.8125 -1.203125 C 2.664062 -2.160156 2.09375 -3.519531 2.09375 -5.28125 L 2.09375 -13.46875 L 0.421875 -13.796875 L 0.421875 -15.6875 Z M 6.921875 -15.6875 "/></g></g><g style="fill:#ff00ff;fill-opacity:1;"><g transform="translate(33.077806, 23.881886)"><path style="stroke:none" d="M 0.59375 -13.796875 L 0.59375 -15.6875 L 7.09375 -15.6875 L 7.09375 -13.796875 L 5.40625 -13.46875 L 5.40625 -2.203125 L 7.09375 -1.890625 L 7.09375 0 L 0.59375 0 L 0.59375 -1.890625 L 2.265625 -2.203125 L 2.265625 -13.46875 Z M 0.59375 -13.796875 "/></g></g><g style="fill:#ff00ff;fill-opacity:1;"><g transform="translate(40.756422, 23.881886)"><path style="stroke:none" d="M 7.65625 -15.6875 C 9.570312 -15.6875 11.148438 -15.070312 12.390625 -13.84375 C 13.640625 -12.625 14.265625 -11.054688 14.265625 -9.140625 L 14.265625 -6.53125 C 14.265625 -4.613281 13.640625 -3.046875 12.390625 -1.828125 C 11.148438 -0.609375 9.570312 0 7.65625 0 L 0.609375 0 L 0.609375 -1.890625 L 2.265625 -2.203125 L 2.265625 -13.46875 L 0.609375 -13.796875 L 0.609375 -15.6875 Z M 5.421875 -13.265625 L 5.421875 -2.40625 L 7.5 -2.40625 C 8.625 -2.40625 9.503906 -2.785156 10.140625 -3.546875 C 10.785156 -4.316406 11.109375 -5.3125 11.109375 -6.53125 L 11.109375 -9.15625 C 11.109375 -10.375 10.785156 -11.363281 10.140625 -12.125 C 9.503906 -12.882812 8.625 -13.265625 7.5 -13.265625 Z M 5.421875 -13.265625 "/></g></g><g style="fill:#ff00ff;fill-opacity:1;"><g transform="translate(55.952112, 23.881886)"><path style="stroke:none" d="M 10.734375 -6.890625 L 5.421875 -6.890625 L 5.421875 -2.40625 L 10.484375 -2.40625 L 10.625 -4.28125 L 13.015625 -4.28125 L 13.015625 0 L 0.609375 0 L 0.609375 -1.890625 L 2.265625 -2.203125 L 2.265625 -13.46875 L 0.609375 -13.796875 L 0.609375 -15.6875 L 12.984375 -15.6875 L 12.984375 -11.390625 L 10.578125 -11.390625 L 10.4375 -13.265625 L 5.421875 -13.265625 L 5.421875 -9.3125 L 10.734375 -9.3125 Z M 10.734375 -6.890625 "/></g></g><g style="fill:#00ffff;fill-opacity:1;"><g transform="translate(1.018925, 23.881886)"><path style="stroke:none" d="M 13.609375 -1.75 C 13.097656 -1.238281 12.351562 -0.78125 11.375 -0.375 C 10.394531 0.0195312 9.160156 0.21875 7.671875 0.21875 C 5.554688 0.21875 3.832031 -0.488281 2.5 -1.90625 C 1.164062 -3.320312 0.5 -5.164062 0.5 -7.4375 L 0.5 -7.96875 C 0.5 -10.320312 1.15625 -12.234375 2.46875 -13.703125 C 3.78125 -15.171875 5.492188 -15.90625 7.609375 -15.90625 C 8.835938 -15.90625 9.957031 -15.707031 10.96875 -15.3125 C 11.988281 -14.925781 12.835938 -14.398438 13.515625 -13.734375 L 13.515625 -10.578125 L 11.1875 -10.578125 L 10.734375 -12.671875 C 10.453125 -12.921875 10.070312 -13.117188 9.59375 -13.265625 C 9.125 -13.410156 8.585938 -13.484375 7.984375 -13.484375 C 6.609375 -13.484375 5.539062 -12.976562 4.78125 -11.96875 C 4.019531 -10.957031 3.640625 -9.632812 3.640625 -8 L 3.640625 -7.4375 C 3.640625 -5.84375 4.007812 -4.566406 4.75 -3.609375 C 5.5 -2.660156 6.582031 -2.1875 8 -2.1875 C 8.625 -2.1875 9.128906 -2.238281 9.515625 -2.34375 C 9.910156 -2.457031 10.222656 -2.582031 10.453125 -2.71875 L 10.453125 -5.390625 L 8.203125 -5.5625 L 8.203125 -7.765625 L 13.609375 -7.765625 Z M 13.609375 -1.75 "/></g></g><g style="fill:#00ffff;fill-opacity:1;"><g transform="translate(15.589987, 23.881886)"><path style="stroke:none" d="M 6.921875 -15.6875 L 6.921875 -13.796875 L 5.234375 -13.46875 L 5.234375 -5.28125 C 5.234375 -4.25 5.507812 -3.472656 6.0625 -2.953125 C 6.625 -2.441406 7.390625 -2.1875 8.359375 -2.1875 C 9.335938 -2.1875 10.109375 -2.441406 10.671875 -2.953125 C 11.234375 -3.460938 11.515625 -4.238281 11.515625 -5.28125 L 11.515625 -13.46875 L 9.84375 -13.796875 L 9.84375 -15.6875 L 16.34375 -15.6875 L 16.34375 -13.796875 L 14.65625 -13.46875 L 14.65625 -5.28125 C 14.65625 -3.519531 14.078125 -2.160156 12.921875 -1.203125 C 11.765625 -0.253906 10.242188 0.21875 8.359375 0.21875 C 6.484375 0.21875 4.96875 -0.253906 3.8125 -1.203125 C 2.664062 -2.160156 2.09375 -3.519531 2.09375 -5.28125 L 2.09375 -13.46875 L 0.421875 -13.796875 L 0.421875 -15.6875 Z M 6.921875 -15.6875 "/></g></g><g style="fill:#00ffff;fill-opacity:1;"><g transform="translate(32.250322, 23.881886)"><path style="stroke:none" d="M 0.59375 -13.796875 L 0.59375 -15.6875 L 7.09375 -15.6875 L 7.09375 -13.796875 L 5.40625 -13.46875 L 5.40625 -2.203125 L 7.09375 -1.890625 L 7.09375 0 L 0.59375 0 L 0.59375 -1.890625 L 2.265625 -2.203125 L 2.265625 -13.46875 Z M 0.59375 -13.796875 "/></g></g><g style="fill:#00ffff;fill-opacity:1;"><g transform="translate(39.928938, 23.881886)"><path style="stroke:none" d="M 7.65625 -15.6875 C 9.570312 -15.6875 11.148438 -15.070312 12.390625 -13.84375 C 13.640625 -12.625 14.265625 -11.054688 14.265625 -9.140625 L 14.265625 -6.53125 C 14.265625 -4.613281 13.640625 -3.046875 12.390625 -1.828125 C 11.148438 -0.609375 9.570312 0 7.65625 0 L 0.609375 0 L 0.609375 -1.890625 L 2.265625 -2.203125 L 2.265625 -13.46875 L 0.609375 -13.796875 L 0.609375 -15.6875 Z M 5.421875 -13.265625 L 5.421875 -2.40625 L 7.5 -2.40625 C 8.625 -2.40625 9.503906 -2.785156 10.140625 -3.546875 C 10.785156 -4.316406 11.109375 -5.3125 11.109375 -6.53125 L 11.109375 -9.15625 C 11.109375 -10.375 10.785156 -11.363281 10.140625 -12.125 C 9.503906 -12.882812 8.625 -13.265625 7.5 -13.265625 Z M 5.421875 -13.265625 "/></g></g><g style="fill:#00ffff;fill-opacity:1;"><g transform="translate(55.124628, 23.881886)"><path style="stroke:none" d="M 10.734375 -6.890625 L 5.421875 -6.890625 L 5.421875 -2.40625 L 10.484375 -2.40625 L 10.625 -4.28125 L 13.015625 -4.28125 L 13.015625 0 L 0.609375 0 L 0.609375 -1.890625 L 2.265625 -2.203125 L 2.265625 -13.46875 L 0.609375 -13.796875 L 0.609375 -15.6875 L 12.984375 -15.6875 L 12.984375 -11.390625 L 10.578125 -11.390625 L 10.4375 -13.265625 L 5.421875 -13.265625 L 5.421875 -9.3125 L 10.734375 -9.3125 Z M 10.734375 -6.890625 "/></g></g><g style="fill:#000000;fill-opacity:1;"><g transform="translate(1.432667, 23.881886)"><path style="stroke:none" d="M 13.609375 -1.75 C 13.097656 -1.238281 12.351562 -0.78125 11.375 -0.375 C 10.394531 0.0195312 9.160156 0.21875 7.671875 0.21875 C 5.554688 0.21875 3.832031 -0.488281 2.5 -1.90625 C 1.164062 -3.320312 0.5 -5.164062 0.5 -7.4375 L 0.5 -7.96875 C 0.5 -10.320312 1.15625 -12.234375 2.46875 -13.703125 C 3.78125 -15.171875 5.492188 -15.90625 7.609375 -15.90625 C 8.835938 -15.90625 9.957031 -15.707031 10.96875 -15.3125 C 11.988281 -14.925781 12.835938 -14.398438 13.515625 -13.734375 L 13.515625 -10.578125 L 11.1875 -10.578125 L 10.734375 -12.671875 C 10.453125 -12.921875 10.070312 -13.117188 9.59375 -13.265625 C 9.125 -13.410156 8.585938 -13.484375 7.984375 -13.484375 C 6.609375 -13.484375 5.539062 -12.976562 4.78125 -11.96875 C 4.019531 -10.957031 3.640625 -9.632812 3.640625 -8 L 3.640625 -7.4375 C 3.640625 -5.84375 4.007812 -4.566406 4.75 -3.609375 C 5.5 -2.660156 6.582031 -2.1875 8 -2.1875 C 8.625 -2.1875 9.128906 -2.238281 9.515625 -2.34375 C 9.910156 -2.457031 10.222656 -2.582031 10.453125 -2.71875 L 10.453125 -5.390625 L 8.203125 -5.5625 L 8.203125 -7.765625 L 13.609375 -7.765625 Z M 13.609375 -1.75 "/></g></g><g style="fill:#000000;fill-opacity:1;"><g transform="translate(16.003729, 23.881886)"><path style="stroke:none" d="M 6.921875 -15.6875 L 6.921875 -13.796875 L 5.234375 -13.46875 L 5.234375 -5.28125 C 5.234375 -4.25 5.507812 -3.472656 6.0625 -2.953125 C 6.625 -2.441406 7.390625 -2.1875 8.359375 -2.1875 C 9.335938 -2.1875 10.109375 -2.441406 10.671875 -2.953125 C 11.234375 -3.460938 11.515625 -4.238281 11.515625 -5.28125 L 11.515625 -13.46875 L 9.84375 -13.796875 L 9.84375 -15.6875 L 16.34375 -15.6875 L 16.34375 -13.796875 L 14.65625 -13.46875 L 14.65625 -5.28125 C 14.65625 -3.519531 14.078125 -2.160156 12.921875 -1.203125 C 11.765625 -0.253906 10.242188 0.21875 8.359375 0.21875 C 6.484375 0.21875 4.96875 -0.253906 3.8125 -1.203125 C 2.664062 -2.160156 2.09375 -3.519531 2.09375 -5.28125 L 2.09375 -13.46875 L 0.421875 -13.796875 L 0.421875 -15.6875 Z M 6.921875 -15.6875 "/></g></g><g style="fill:#000000;fill-opacity:1;"><g transform="translate(32.664064, 23.881886)"><path style="stroke:none" d="M 0.59375 -13.796875 L 0.59375 -15.6875 L 7.09375 -15.6875 L 7.09375 -13.796875 L 5.40625 -13.46875 L 5.40625 -2.203125 L 7.09375 -1.890625 L 7.09375 0 L 0.59375 0 L 0.59375 -1.890625 L 2.265625 -2.203125 L 2.265625 -13.46875 Z M 0.59375 -13.796875 "/></g></g><g style="fill:#000000;fill-opacity:1;"><g transform="translate(40.34268, 23.881886)"><path style="stroke:none" d="M 7.65625 -15.6875 C 9.570312 -15.6875 11.148438 -15.070312 12.390625 -13.84375 C 13.640625 -12.625 14.265625 -11.054688 14.265625 -9.140625 L 14.265625 -6.53125 C 14.265625 -4.613281 13.640625 -3.046875 12.390625 -1.828125 C 11.148438 -0.609375 9.570312 0 7.65625 0 L 0.609375 0 L 0.609375 -1.890625 L 2.265625 -2.203125 L 2.265625 -13.46875 L 0.609375 -13.796875 L 0.609375 -15.6875 Z M 5.421875 -13.265625 L 5.421875 -2.40625 L 7.5 -2.40625 C 8.625 -2.40625 9.503906 -2.785156 10.140625 -3.546875 C 10.785156 -4.316406 11.109375 -5.3125 11.109375 -6.53125 L 11.109375 -9.15625 C 11.109375 -10.375 10.785156 -11.363281 10.140625 -12.125 C 9.503906 -12.882812 8.625 -13.265625 7.5 -13.265625 Z M 5.421875 -13.265625 "/></g></g><g style="fill:#000000;fill-opacity:1;"><g transform="translate(55.53837, 23.881886)"><path style="stroke:none" d="M 10.734375 -6.890625 L 5.421875 -6.890625 L 5.421875 -2.40625 L 10.484375 -2.40625 L 10.625 -4.28125 L 13.015625 -4.28125 L 13.015625 0 L 0.609375 0 L 0.609375 -1.890625 L 2.265625 -2.203125 L 2.265625 -13.46875 L 0.609375 -13.796875 L 0.609375 -15.6875 L 12.984375 -15.6875 L 12.984375 -11.390625 L 10.578125 -11.390625 L 10.4375 -13.265625 L 5.421875 -13.265625 L 5.421875 -9.3125 L 10.734375 -9.3125 Z M 10.734375 -6.890625 "/></g></g></g></g></g></svg>